<?xml version="1.0" encoding="UTF-8" standalone="no"?>
<!DOCTYPE svg PUBLIC "-//W3C//DTD SVG 1.1//EN"
 "http://www.w3.org/Graphics/SVG/1.1/DTD/svg11.dtd">
<!-- Generated by graphviz version 14.1.1 (20251213.1925)
 -->
<!-- Title: Dependencies Pages: 1 -->
<svg width="339pt" height="789pt"
 viewBox="0.00 0.00 339.00 789.00" xmlns="http://www.w3.org/2000/svg" xmlns:xlink="http://www.w3.org/1999/xlink">
<g id="graph0" class="graph" transform="scale(1 1) rotate(0) translate(4 784.5)">
<title>Dependencies</title>
<polygon fill="white" stroke="none" points="-4,4 -4,-784.5 334.5,-784.5 334.5,4 -4,4"/>
<text xml:space="preserve" text-anchor="middle" x="165.25" y="-7.2" font-family="Times New Roman,serif" font-size="14.00">simple_sql &#45; Dependencies</text>
<!-- simple_sql -->
<g id="node1" class="node">
<title>simple_sql</title>
<polygon fill="lightblue" stroke="black" points="75.25,-276.5 0,-276.5 0,-240.5 75.25,-240.5 75.25,-276.5"/>
<text xml:space="preserve" text-anchor="middle" x="37.62" y="-253.45" font-family="Times New Roman,serif" font-size="14.00">simple_sql</text>
</g>
<!-- simple_json -->
<g id="node2" class="node">
<title>simple_json</title>
<polygon fill="lightblue" stroke="black" points="315.88,-780.5 233.88,-780.5 233.88,-744.5 315.88,-744.5 315.88,-780.5"/>
<text xml:space="preserve" text-anchor="middle" x="274.88" y="-757.45" font-family="Times New Roman,serif" font-size="14.00">simple_json</text>
</g>
<!-- simple_sql&#45;&gt;simple_json -->
<g id="edge1" class="edge">
<title>simple_sql&#45;&gt;simple_json</title>
<path fill="none" stroke="black" stroke-dasharray="5,2" d="M9.5,-276.74C9.5,-367.09 9.5,-762.5 9.5,-762.5 9.5,-762.5 221.9,-762.5 221.9,-762.5"/>
<polygon fill="black" stroke="black" points="221.9,-766 231.9,-762.5 221.9,-759 221.9,-766"/>
</g>
<!-- simple_sorter -->
<g id="node3" class="node">
<title>simple_sorter</title>
<polygon fill="lightblue" stroke="black" points="320,-708.5 229.75,-708.5 229.75,-672.5 320,-672.5 320,-708.5"/>
<text xml:space="preserve" text-anchor="middle" x="274.88" y="-685.45" font-family="Times New Roman,serif" font-size="14.00">simple_sorter</text>
</g>
<!-- simple_sql&#45;&gt;simple_sorter -->
<g id="edge2" class="edge">
<title>simple_sql&#45;&gt;simple_sorter</title>
<path fill="none" stroke="black" stroke-dasharray="5,2" d="M18.5,-276.79C18.5,-359.01 18.5,-690.5 18.5,-690.5 18.5,-690.5 217.82,-690.5 217.82,-690.5"/>
<polygon fill="black" stroke="black" points="217.82,-694 227.82,-690.5 217.82,-687 217.82,-694"/>
</g>
<!-- sqlite -->
<g id="node4" class="node">
<title>sqlite</title>
<polygon fill="lightblue" stroke="black" points="301.88,-636.5 247.88,-636.5 247.88,-600.5 301.88,-600.5 301.88,-636.5"/>
<text xml:space="preserve" text-anchor="middle" x="274.88" y="-613.45" font-family="Times New Roman,serif" font-size="14.00">sqlite</text>
</g>
<!-- simple_sql&#45;&gt;sqlite -->
<g id="edge3" class="edge">
<title>simple_sql&#45;&gt;sqlite</title>
<path fill="none" stroke="black" stroke-dasharray="5,2" d="M28.5,-276.85C28.5,-350.21 28.5,-618.5 28.5,-618.5 28.5,-618.5 236.05,-618.5 236.05,-618.5"/>
<polygon fill="black" stroke="black" points="236.05,-622 246.05,-618.5 236.05,-615 236.05,-622"/>
</g>
<!-- simple_encoding -->
<g id="node5" class="node">
<title>simple_encoding</title>
<polygon fill="lightblue" stroke="black" points="329.38,-564.5 220.38,-564.5 220.38,-528.5 329.38,-528.5 329.38,-564.5"/>
<text xml:space="preserve" text-anchor="middle" x="274.88" y="-541.45" font-family="Times New Roman,serif" font-size="14.00">simple_encoding</text>
</g>
<!-- simple_sql&#45;&gt;simple_encoding -->
<g id="edge4" class="edge">
<title>simple_sql&#45;&gt;simple_encoding</title>
<path fill="none" stroke="black" stroke-dasharray="5,2" d="M37.5,-276.95C37.5,-340.52 37.5,-546.5 37.5,-546.5 37.5,-546.5 208.6,-546.5 208.6,-546.5"/>
<polygon fill="black" stroke="black" points="208.6,-550 218.6,-546.5 208.6,-543 208.6,-550"/>
</g>
<!-- simple_factory -->
<g id="node6" class="node">
<title>simple_factory</title>
<polygon fill="lightblue" stroke="black" points="323.75,-492.5 226,-492.5 226,-456.5 323.75,-456.5 323.75,-492.5"/>
<text xml:space="preserve" text-anchor="middle" x="274.88" y="-469.45" font-family="Times New Roman,serif" font-size="14.00">simple_factory</text>
</g>
<!-- simple_sql&#45;&gt;simple_factory -->
<g id="edge5" class="edge">
<title>simple_sql&#45;&gt;simple_factory</title>
<path fill="none" stroke="black" stroke-dasharray="5,2" d="M47.5,-276.92C47.5,-329.15 47.5,-474.5 47.5,-474.5 47.5,-474.5 214.02,-474.5 214.02,-474.5"/>
<polygon fill="black" stroke="black" points="214.02,-478 224.02,-474.5 214.02,-471 214.02,-478"/>
</g>
<!-- simple_reflection -->
<g id="node7" class="node">
<title>simple_reflection</title>
<polygon fill="lightblue" stroke="black" points="330.5,-420.5 219.25,-420.5 219.25,-384.5 330.5,-384.5 330.5,-420.5"/>
<text xml:space="preserve" text-anchor="middle" x="274.88" y="-397.45" font-family="Times New Roman,serif" font-size="14.00">simple_reflection</text>
</g>
<!-- simple_sql&#45;&gt;simple_reflection -->
<g id="edge6" class="edge">
<title>simple_sql&#45;&gt;simple_reflection</title>
<path fill="none" stroke="black" stroke-dasharray="5,2" d="M56.5,-276.74C56.5,-315.49 56.5,-402.5 56.5,-402.5 56.5,-402.5 207.41,-402.5 207.41,-402.5"/>
<polygon fill="black" stroke="black" points="207.41,-406 217.41,-402.5 207.41,-399 207.41,-406"/>
</g>
<!-- simple_mml -->
<g id="node8" class="node">
<title>simple_mml</title>
<polygon fill="lightblue" stroke="black" points="317.75,-348.5 232,-348.5 232,-312.5 317.75,-312.5 317.75,-348.5"/>
<text xml:space="preserve" text-anchor="middle" x="274.88" y="-325.45" font-family="Times New Roman,serif" font-size="14.00">simple_mml</text>
</g>
<!-- simple_sql&#45;&gt;simple_mml -->
<g id="edge7" class="edge">
<title>simple_sql&#45;&gt;simple_mml</title>
<path fill="none" stroke="black" stroke-dasharray="5,2" d="M65.5,-276.67C65.5,-298 65.5,-330.5 65.5,-330.5 65.5,-330.5 220.23,-330.5 220.23,-330.5"/>
<polygon fill="black" stroke="black" points="220.23,-334 230.23,-330.5 220.23,-327 220.23,-334"/>
</g>
<!-- simple_testing -->
<g id="node9" class="node">
<title>simple_testing</title>
<polygon fill="lightblue" stroke="black" points="322.62,-276.5 227.12,-276.5 227.12,-240.5 322.62,-240.5 322.62,-276.5"/>
<text xml:space="preserve" text-anchor="middle" x="274.88" y="-253.45" font-family="Times New Roman,serif" font-size="14.00">simple_testing</text>
</g>
<!-- simple_sql&#45;&gt;simple_testing -->
<g id="edge8" class="edge">
<title>simple_sql&#45;&gt;simple_testing</title>
<path fill="none" stroke="black" stroke-dasharray="5,2" d="M75.74,-271.36C75.74,-271.36 215.51,-271.36 215.51,-271.36"/>
<polygon fill="black" stroke="black" points="215.51,-274.86 225.51,-271.36 215.51,-267.86 215.51,-274.86"/>
</g>
<!-- simple_sql&#45;&gt;simple_testing -->
<g id="edge9" class="edge">
<title>simple_sql&#45;&gt;simple_testing</title>
<path fill="none" stroke="black" stroke-dasharray="5,2" d="M75.74,-266.21C75.74,-266.21 215.51,-266.21 215.51,-266.21"/>
<polygon fill="black" stroke="black" points="215.51,-269.71 225.51,-266.21 215.51,-262.71 215.51,-269.71"/>
</g>
<!-- simple_sql&#45;&gt;simple_testing -->
<g id="edge10" class="edge">
<title>simple_sql&#45;&gt;simple_testing</title>
<path fill="none" stroke="black" stroke-dasharray="5,2" d="M75.74,-261.07C75.74,-261.07 215.51,-261.07 215.51,-261.07"/>
<polygon fill="black" stroke="black" points="215.51,-264.57 225.51,-261.07 215.51,-257.57 215.51,-264.57"/>
</g>
<!-- simple_sql&#45;&gt;simple_testing -->
<g id="edge11" class="edge">
<title>simple_sql&#45;&gt;simple_testing</title>
<path fill="none" stroke="black" stroke-dasharray="5,2" d="M75.74,-245.64C75.74,-245.64 215.51,-245.64 215.51,-245.64"/>
<polygon fill="black" stroke="black" points="215.51,-249.14 225.51,-245.64 215.51,-242.14 215.51,-249.14"/>
</g>
<!-- simple_sql&#45;&gt;simple_testing -->
<g id="edge12" class="edge">
<title>simple_sql&#45;&gt;simple_testing</title>
<path fill="none" stroke="black" stroke-dasharray="5,2" d="M75.74,-255.93C75.74,-255.93 215.51,-255.93 215.51,-255.93"/>
<polygon fill="black" stroke="black" points="215.51,-259.43 225.51,-255.93 215.51,-252.43 215.51,-259.43"/>
</g>
<!-- simple_sql&#45;&gt;simple_testing -->
<g id="edge13" class="edge">
<title>simple_sql&#45;&gt;simple_testing</title>
<path fill="none" stroke="black" stroke-dasharray="5,2" d="M75.74,-250.79C75.74,-250.79 215.51,-250.79 215.51,-250.79"/>
<polygon fill="black" stroke="black" points="215.51,-254.29 225.51,-250.79 215.51,-247.29 215.51,-254.29"/>
</g>
<!-- base -->
<g id="node10" class="node">
<title>base</title>
<polygon fill="lightgray" stroke="black" points="301.88,-204.5 247.88,-204.5 247.88,-168.5 301.88,-168.5 301.88,-204.5"/>
<text xml:space="preserve" text-anchor="middle" x="274.88" y="-181.45" font-family="Times New Roman,serif" font-size="14.00">base</text>
</g>
<!-- simple_sql&#45;&gt;base -->
<g id="edge14" class="edge">
<title>simple_sql&#45;&gt;base</title>
<path fill="none" stroke="black" stroke-dasharray="5,2" d="M66.5,-240.33C66.5,-219 66.5,-186.5 66.5,-186.5 66.5,-186.5 236.12,-186.5 236.12,-186.5"/>
<polygon fill="black" stroke="black" points="236.12,-190 246.12,-186.5 236.12,-183 236.12,-190"/>
</g>
<!-- base_extension -->
<g id="node11" class="node">
<title>base_extension</title>
<polygon fill="lightgray" stroke="black" points="324.12,-132.5 225.62,-132.5 225.62,-96.5 324.12,-96.5 324.12,-132.5"/>
<text xml:space="preserve" text-anchor="middle" x="274.88" y="-109.45" font-family="Times New Roman,serif" font-size="14.00">base_extension</text>
</g>
<!-- simple_sql&#45;&gt;base_extension -->
<g id="edge15" class="edge">
<title>simple_sql&#45;&gt;base_extension</title>
<path fill="none" stroke="black" stroke-dasharray="5,2" d="M58.5,-240.26C58.5,-201.51 58.5,-114.5 58.5,-114.5 58.5,-114.5 213.72,-114.5 213.72,-114.5"/>
<polygon fill="black" stroke="black" points="213.72,-118 223.72,-114.5 213.72,-111 213.72,-118"/>
</g>
<!-- testing -->
<g id="node12" class="node">
<title>testing</title>
<polygon fill="lightgray" stroke="black" points="301.88,-60.5 247.88,-60.5 247.88,-24.5 301.88,-24.5 301.88,-60.5"/>
<text xml:space="preserve" text-anchor="middle" x="274.88" y="-37.45" font-family="Times New Roman,serif" font-size="14.00">testing</text>
</g>
<!-- simple_sql&#45;&gt;testing -->
<g id="edge16" class="edge">
<title>simple_sql&#45;&gt;testing</title>
<path fill="none" stroke="black" stroke-dasharray="5,2" d="M41.5,-240.02C41.5,-189.04 41.5,-50.21 41.5,-50.21 41.5,-50.21 236.13,-50.21 236.13,-50.21"/>
<polygon fill="black" stroke="black" points="236.13,-53.71 246.13,-50.21 236.13,-46.71 236.13,-53.71"/>
</g>
<!-- simple_sql&#45;&gt;testing -->
<g id="edge17" class="edge">
<title>simple_sql&#45;&gt;testing</title>
<path fill="none" stroke="black" stroke-dasharray="5,2" d="M50.5,-240.11C50.5,-190.11 50.5,-55.36 50.5,-55.36 50.5,-55.36 236.3,-55.36 236.3,-55.36"/>
<polygon fill="black" stroke="black" points="236.3,-58.86 246.3,-55.36 236.3,-51.86 236.3,-58.86"/>
</g>
<!-- simple_sql&#45;&gt;testing -->
<g id="edge18" class="edge">
<title>simple_sql&#45;&gt;testing</title>
<path fill="none" stroke="black" stroke-dasharray="5,2" d="M33.5,-240.3C33.5,-188.69 33.5,-45.07 33.5,-45.07 33.5,-45.07 236.14,-45.07 236.14,-45.07"/>
<polygon fill="black" stroke="black" points="236.14,-48.57 246.14,-45.07 236.14,-41.57 236.14,-48.57"/>
</g>
<!-- simple_sql&#45;&gt;testing -->
<g id="edge19" class="edge">
<title>simple_sql&#45;&gt;testing</title>
<path fill="none" stroke="black" stroke-dasharray="5,2" d="M8.5,-240.16C8.5,-185.85 8.5,-29.64 8.5,-29.64 8.5,-29.64 236.35,-29.64 236.35,-29.64"/>
<polygon fill="black" stroke="black" points="236.35,-33.14 246.35,-29.64 236.35,-26.14 236.35,-33.14"/>
</g>
<!-- simple_sql&#45;&gt;testing -->
<g id="edge20" class="edge">
<title>simple_sql&#45;&gt;testing</title>
<path fill="none" stroke="black" stroke-dasharray="5,2" d="M16.5,-240.19C16.5,-186.76 16.5,-34.79 16.5,-34.79 16.5,-34.79 236.2,-34.79 236.2,-34.79"/>
<polygon fill="black" stroke="black" points="236.2,-38.29 246.2,-34.79 236.2,-31.29 236.2,-38.29"/>
</g>
<!-- simple_sql&#45;&gt;testing -->
<g id="edge21" class="edge">
<title>simple_sql&#45;&gt;testing</title>
<path fill="none" stroke="black" stroke-dasharray="5,2" d="M25.5,-240.24C25.5,-187.71 25.5,-39.93 25.5,-39.93 25.5,-39.93 236.2,-39.93 236.2,-39.93"/>
<polygon fill="black" stroke="black" points="236.2,-43.43 246.2,-39.93 236.2,-36.43 236.2,-43.43"/>
</g>
</g>
</svg>
